<svg width="390" height="77" viewBox="0 0 390 77" fill="none" xmlns="http://www.w3.org/2000/svg">
<path d="M563 89.0001L559.247 78.5704C555.493 68.297 548.143 47.2032 540.324 39.0001C532.973 30.797 525.467 34.7032 518.038 28.5704C510.453 22.2032 502.79 5.79696 495.362 16.0704C487.933 26.5001 480.505 64.0001 473.076 70.2501C465.413 76.5001 457.828 51.5001 450.4 51.5001C442.893 51.5001 435.543 76.5001 427.724 74.4298C420.373 72.2032 412.867 43.297 405.438 32.7501C397.853 22.2032 390.19 30.797 382.762 30.6798C375.333 30.797 367.905 22.2032 360.476 22.3204C352.813 22.2032 345.228 30.7969 337.8 45.2501C330.293 59.7032 322.943 80.7969 315.124 76.5001C307.773 72.2032 300.267 43.2969 292.838 41.0704C285.253 39.0001 277.59 64.0001 270.162 68.1798C262.733 72.2032 255.305 55.7969 247.876 39.0001C240.213 22.2032 232.628 5.79694 225.2 1.50006C217.693 -2.79681 210.343 5.79694 202.524 14.0001C195.173 22.2032 187.667 30.7969 180.238 26.5001C172.653 22.2032 164.99 5.79694 157.562 5.67975C150.133 5.79694 142.705 22.2032 135.276 36.9297C127.613 51.5001 120.028 64.0001 112.6 64.0001C105.093 64.0001 97.743 51.5001 89.9236 53.5704C82.5733 55.7969 75.0667 72.2032 67.6382 70.25C60.0533 68.2969 52.3903 47.2032 44.9618 43.1797C37.5333 39 30.1049 51.5 22.6764 57.75C15.0133 64 7.42847 64 3.90973 64L4.37114e-06 64L0 114L3.7533 114C7.50665 114 14.8569 114 22.6764 114C30.0267 114 37.5333 114 44.9618 114C52.5467 114 60.2097 114 67.6382 114C75.0667 114 82.4951 114 89.9236 114C97.5867 114 105.172 114 112.6 114C120.107 114 127.457 114 135.276 114C142.627 114 150.133 114 157.562 114C165.147 114 172.81 114 180.238 114C187.667 114 195.095 114 202.524 114C210.187 114 217.772 114 225.2 114C232.707 114 240.057 114 247.876 114C255.227 114 262.733 114 270.162 114C277.747 114 285.41 114 292.838 114C300.267 114 307.695 114 315.124 114C322.787 114 330.372 114 337.8 114C345.307 114 352.657 114 360.476 114C367.827 114 375.333 114 382.762 114C390.347 114 398.01 114 405.438 114C412.867 114 420.295 114 427.724 114C435.387 114 442.972 114 450.4 114C457.907 114 465.257 114 473.076 114C480.427 114 487.933 114 495.362 114C502.947 114 510.61 114 518.038 114C525.467 114 532.895 114 540.324 114C547.987 114 555.572 114 559.09 114L563 114L563 89.0001Z" fill="#159EA0"/>
</svg>
